<svg xmlns="http://www.w3.org/2000/svg" xmlns:xlink="http://www.w3.org/1999/xlink" contentStyleType="text/css" data-diagram-type="STATE" height="745px" preserveAspectRatio="none" style="width:766px;height:745px;background:#FFFFFF;" version="1.1" viewBox="0 0 766 745" width="766px" zoomAndPan="magnify"><?plantuml 1.2026.6?><defs/><g><g class="title" data-source-line="1"><text fill="#000000" font-family="sans-serif" font-size="14" font-weight="700" lengthAdjust="spacing" textLength="245.9434" x="256.7067" y="23.5352">Payment &#8212; Canonical V1 Lifecycle</text></g><g class="start_entity" data-qualified-name=".start." data-source-line="5" id="ent0001"><ellipse cx="144.37" cy="53.4883" fill="#222222" rx="10" ry="10" style="stroke:#222222;stroke-width:1;"/></g><rect fill="#F1F1F1" height="40" rx="12.5" ry="12.5" style="stroke:#181818;stroke-width:0.5;" width="77.8809" x="105.43" y="124.4883"/><text fill="#000000" font-family="sans-serif" font-size="14" lengthAdjust="spacing" textLength="67.8809" x="110.43" y="149.7793">INITIATED</text><rect fill="#F1F1F1" height="40" rx="12.5" ry="12.5" style="stroke:#181818;stroke-width:0.5;" width="98.7988" x="94.97" y="241.4883"/><text fill="#000000" font-family="sans-serif" font-size="14" lengthAdjust="spacing" textLength="88.7988" x="99.97" y="266.7793">AUTHORIZED</text><rect fill="#F1F1F1" height="40" rx="12.5" ry="12.5" style="stroke:#181818;stroke-width:0.5;" width="91.4297" x="98.65" y="366.4483"/><text fill="#000000" font-family="sans-serif" font-size="14" lengthAdjust="spacing" textLength="81.4297" x="103.65" y="391.7393">CONFIRMED</text><rect fill="#F1F1F1" height="40" rx="12.5" ry="12.5" style="stroke:#181818;stroke-width:0.5;" width="56.7373" x="7" y="366.4483"/><text fill="#000000" font-family="sans-serif" font-size="14" lengthAdjust="spacing" textLength="46.7373" x="12" y="391.7393">FAILED</text><rect fill="#F1F1F1" height="40" rx="12.5" ry="12.5" style="stroke:#181818;stroke-width:0.5;" width="89.9668" x="662.39" y="366.4483"/><text fill="#000000" font-family="sans-serif" font-size="14" lengthAdjust="spacing" textLength="79.9668" x="667.39" y="391.7393">CANCELLED</text><rect fill="#F1F1F1" height="40" rx="12.5" ry="12.5" style="stroke:#181818;stroke-width:0.5;" width="161.9971" x="81.37" y="491.4183"/><text fill="#000000" font-family="sans-serif" font-size="14" lengthAdjust="spacing" textLength="151.9971" x="86.37" y="516.7093">PARTIALLY_REFUNDED</text><rect fill="#F1F1F1" height="40" rx="12.5" ry="12.5" style="stroke:#181818;stroke-width:0.5;" width="82.5498" x="204.09" y="608.4183"/><text fill="#000000" font-family="sans-serif" font-size="14" lengthAdjust="spacing" textLength="72.5498" x="209.09" y="633.7093">REFUNDED</text><g class="end_entity" data-qualified-name=".end." data-source-line="16" id="ent0019"><ellipse cx="245.37" cy="720.4183" fill="none" rx="11" ry="11" style="stroke:#222222;stroke-width:1;"/><ellipse cx="245.37" cy="720.4183" fill="#222222" rx="6" ry="6" style="stroke:#222222;stroke-width:1;"/></g><g class="entity" data-qualified-name="GMN23" data-source-line="21" id="ent0024"><path d="M225.07,358.4883 L225.07,382.4483 L190.36,386.4483 L225.07,390.4483 L225.07,414.4199 A0,0 0 0 0 225.07,414.4199 L627.6657,414.4199 A0,0 0 0 0 627.6657,414.4199 L627.6657,368.4883 L617.6657,358.4883 L225.07,358.4883 A0,0 0 0 0 225.07,358.4883" fill="#FEFFDD" style="stroke:#181818;stroke-width:0.5;"/><path d="M617.6657,358.4883 L617.6657,368.4883 L627.6657,368.4883 L617.6657,358.4883" fill="#FEFFDD" style="stroke:#181818;stroke-width:0.5;"/><text fill="#000000" font-family="sans-serif" font-size="13" lengthAdjust="spacing" textLength="286.7363" x="231.07" y="376.0566">Payment confirmation is server-authoritative.</text><text fill="#000000" font-family="sans-serif" font-size="13" lengthAdjust="spacing" textLength="343.8716" x="231.07" y="391.3672">An uncertain provider/local outcome opens a separate</text><text fill="#000000" font-family="sans-serif" font-size="13" lengthAdjust="spacing" textLength="381.5957" x="231.07" y="406.6777">PaymentReconciliationCase; it never erases payment history.</text></g><!--link *start* to INITIATED--><g class="link" data-entity-1="ent0001" data-entity-2="ent0002" data-link-type="dependency" data-source-line="5" id="lnk3"><path d="M144.37,63.6783 C144.37,77.8883 144.37,100.5083 144.37,119.2283" fill="none" id="*start*-to-INITIATED" style="stroke:#181818;stroke-width:1;"/><polygon fill="#181818" points="144.37,124.2283,148.37,115.2283,144.37,119.2283,140.37,115.2283,144.37,124.2283" style="stroke:#181818;stroke-width:1;stroke-linejoin:miter;stroke-miterlimit:10;"/></g><!--link INITIATED to AUTHORIZED--><g class="link" data-entity-1="ent0002" data-entity-2="ent0004" data-link-type="dependency" data-source-line="6" id="lnk5"><path d="M144.37,164.7383 C144.37,185.9683 144.37,214.9183 144.37,236.1783" fill="none" id="INITIATED-to-AUTHORIZED" style="stroke:#181818;stroke-width:1;"/><polygon fill="#181818" points="144.37,241.1783,148.37,232.1783,144.37,236.1783,140.37,232.1783,144.37,241.1783" style="stroke:#181818;stroke-width:1;stroke-linejoin:miter;stroke-miterlimit:10;"/><text fill="#000000" font-family="sans-serif" font-size="13" lengthAdjust="spacing" textLength="141.375" x="145.37" y="208.0566">provider authorization</text></g><!--link AUTHORIZED to CONFIRMED--><g class="link" data-entity-1="ent0004" data-entity-2="ent0006" data-link-type="dependency" data-source-line="7" id="lnk7"><path d="M144.37,281.9683 C144.37,304.9983 144.37,338.0783 144.37,361.0583" fill="none" id="AUTHORIZED-to-CONFIRMED" style="stroke:#181818;stroke-width:1;"/><polygon fill="#181818" points="144.37,366.0583,148.37,357.0583,144.37,361.0583,140.37,357.0583,144.37,366.0583" style="stroke:#181818;stroke-width:1;stroke-linejoin:miter;stroke-miterlimit:10;"/><text fill="#000000" font-family="sans-serif" font-size="13" lengthAdjust="spacing" textLength="148.5542" x="145.37" y="325.0566">confirmed provider fact</text></g><!--link INITIATED to FAILED--><g class="link" data-entity-1="ent0002" data-entity-2="ent0008" data-link-type="dependency" data-source-line="8" id="lnk9"><path d="M127.95,164.8983 C112.95,183.4983 91.06,212.8883 77.37,241.4883 C57.13,283.7583 45.5709,332.8554 39.9009,361.1954" fill="none" id="INITIATED-to-FAILED" style="stroke:#181818;stroke-width:1;"/><polygon fill="#181818" points="38.92,366.0983,44.6079,358.0579,39.9009,361.1954,36.7634,356.4884,38.92,366.0983" style="stroke:#181818;stroke-width:1;stroke-linejoin:miter;stroke-miterlimit:10;"/></g><!--link AUTHORIZED to FAILED--><g class="link" data-entity-1="ent0004" data-entity-2="ent0008" data-link-type="dependency" data-source-line="9" id="lnk10"><path d="M127.1,281.9683 C106.69,304.9983 76.2467,339.3367 55.8767,362.3167" fill="none" id="AUTHORIZED-to-FAILED" style="stroke:#181818;stroke-width:1;"/><polygon fill="#181818" points="52.56,366.0583,61.5233,361.9767,55.8767,362.3167,55.5367,356.67,52.56,366.0583" style="stroke:#181818;stroke-width:1;stroke-linejoin:miter;stroke-miterlimit:10;"/></g><!--link INITIATED to CANCELLED--><g class="link" data-entity-1="ent0002" data-entity-2="ent0011" data-link-type="dependency" data-source-line="10" id="lnk12"><path d="M183.62,156.8083 C214.36,166.0183 258.04,179.8383 295.37,194.4883 C436.28,249.7783 593.1106,327.2869 664.9506,363.7169" fill="none" id="INITIATED-to-CANCELLED" style="stroke:#181818;stroke-width:1;"/><polygon fill="#181818" points="669.41,365.9783,663.1922,358.3403,664.9506,363.7169,659.574,365.4754,669.41,365.9783" style="stroke:#181818;stroke-width:1;stroke-linejoin:miter;stroke-miterlimit:10;"/></g><!--link AUTHORIZED to CANCELLED--><g class="link" data-entity-1="ent0004" data-entity-2="ent0011" data-link-type="dependency" data-source-line="11" id="lnk13"><path d="M193.96,268.2983 C284.94,279.7583 483.97,308.5983 645.37,358.4883 C652.21,360.5983 654.6794,361.3522 661.5294,364.1422" fill="none" id="AUTHORIZED-to-CANCELLED" style="stroke:#181818;stroke-width:1;"/><polygon fill="#181818" points="666.16,366.0283,659.3337,358.9289,661.5294,364.1422,656.316,366.3379,666.16,366.0283" style="stroke:#181818;stroke-width:1;stroke-linejoin:miter;stroke-miterlimit:10;"/></g><!--link CONFIRMED to PARTIALLY_REFUNDED--><g class="link" data-entity-1="ent0006" data-entity-2="ent0014" data-link-type="dependency" data-source-line="12" id="lnk15"><path d="M147.22,406.9383 C150.59,429.9583 155.4469,463.0908 158.8069,486.0808" fill="none" id="CONFIRMED-to-PARTIALLY_REFUNDED" style="stroke:#181818;stroke-width:1;"/><polygon fill="#181818" points="159.53,491.0283,162.1864,481.5444,158.8069,486.0808,154.2705,482.7013,159.53,491.0283" style="stroke:#181818;stroke-width:1;stroke-linejoin:miter;stroke-miterlimit:10;"/><text fill="#000000" font-family="sans-serif" font-size="13" lengthAdjust="spacing" textLength="108.2085" x="155.98" y="457.9866">partial correction</text></g><!--link CONFIRMED to REFUNDED--><g class="link" data-entity-1="ent0006" data-entity-2="ent0016" data-link-type="dependency" data-source-line="13" id="lnk17"><path d="M189.88,406.9483 C226.44,422.7083 271.95,442.5683 273.37,444.4183 C309.92,492.1183 313.49,522.5483 291.37,578.4183 C286.9,589.6983 282.069,596.4374 273.639,604.5674" fill="none" id="CONFIRMED-to-REFUNDED" style="stroke:#181818;stroke-width:1;"/><polygon fill="#181818" points="270.04,608.0383,279.2949,604.6698,273.639,604.5674,273.7415,598.9114,270.04,608.0383" style="stroke:#181818;stroke-width:1;stroke-linejoin:miter;stroke-miterlimit:10;"/><text fill="#000000" font-family="sans-serif" font-size="13" lengthAdjust="spacing" textLength="66.1362" x="306.12" y="516.4866">full refund</text></g><!--link PARTIALLY_REFUNDED to REFUNDED--><g class="link" data-entity-1="ent0014" data-entity-2="ent0016" data-link-type="dependency" data-source-line="14" id="lnk18"><path d="M162.79,531.7583 C163.93,545.7283 167.24,564.5183 176.37,578.4183 C184.19,590.3283 191.8237,597.4839 203.4737,605.2139" fill="none" id="PARTIALLY_REFUNDED-to-REFUNDED" style="stroke:#181818;stroke-width:1;"/><polygon fill="#181818" points="207.64,607.9783,202.3522,599.6693,203.4737,605.2139,197.9291,606.3354,207.64,607.9783" style="stroke:#181818;stroke-width:1;stroke-linejoin:miter;stroke-miterlimit:10;"/><text fill="#000000" font-family="sans-serif" font-size="13" lengthAdjust="spacing" textLength="109.4082" x="177.37" y="574.9866">remaining refund</text></g><!--link FAILED to *end*--><g class="link" data-entity-1="ent0008" data-entity-2="ent0019" data-link-type="dependency" data-source-line="16" id="lnk20"><path d="M35.86,406.7583 C37.32,435.4983 42.95,490.5383 64.37,531.4183 C109.79,618.1083 203.3566,689.4348 232.7566,710.5148" fill="none" id="FAILED-to-*end*" style="stroke:#181818;stroke-width:1;"/><polygon fill="#181818" points="236.82,713.4283,231.8366,704.9332,232.7566,710.5148,227.175,711.4347,236.82,713.4283" style="stroke:#181818;stroke-width:1;stroke-linejoin:miter;stroke-miterlimit:10;"/></g><!--link CANCELLED to *end*--><g class="link" data-entity-1="ent0011" data-entity-2="ent0019" data-link-type="dependency" data-source-line="17" id="lnk21"><path d="M680.53,406.7383 C591.37,470.8083 311.6705,671.7808 258.1705,710.2208" fill="none" id="CANCELLED-to-*end*" style="stroke:#181818;stroke-width:1;"/><polygon fill="#181818" points="254.11,713.1383,263.753,711.1352,258.1705,710.2208,259.085,704.6383,254.11,713.1383" style="stroke:#181818;stroke-width:1;stroke-linejoin:miter;stroke-miterlimit:10;"/></g><!--link REFUNDED to *end*--><g class="link" data-entity-1="ent0016" data-entity-2="ent0019" data-link-type="dependency" data-source-line="18" id="lnk22"><path d="M245.37,648.5083 C245.37,667.0783 245.37,689.5883 245.37,704.2883" fill="none" id="REFUNDED-to-*end*" style="stroke:#181818;stroke-width:1;"/><polygon fill="#181818" points="245.37,709.2883,249.37,700.2883,245.37,704.2883,241.37,700.2883,245.37,709.2883" style="stroke:#181818;stroke-width:1;stroke-linejoin:miter;stroke-miterlimit:10;"/></g><?plantuml-src RLB1IiD04BtlLynPQCMhWX3I5WCnBQ4LL4IMpQGPJ7R3xAOIJtw4N-YNk4bZqvRUTj--Ds_cxJXo9S9AjXLg1x_VFn1ARJGfMSBJ3SIKesfLYQAW306hshMGeLLCjIEZXVqWNKkM5TX2PkQJz1PoMLeKulNg3IQJUuYIQ1q5w_bC74uz7cpM3yiqUl7NMwZPxBm3WsnSOPY-P5_-YDD9mcMoYDB7Ng6Cpeahp4PjBfKxCra4KUoTp-eCw2ar399m7bzWZm-ZVuUlWjJBu_ZvFPqlDibiFuXaHpuyPPXHzKESgewuULEMm9WtEXCNYfsn6Ij9kWjua8Zz63tFXoqEVHwGar8T8BHn24pRme79npp5_mOCgVRf0rcmo3laoV0hpkCxd8f0GwCLilCD7UA_BastDQPnobG8faPjGVeAtNuu_BT8qNieAgdt2AN5Eo076hqF8FkxzI7kkod8EiFjLA3Ee6lz3m00?></g></svg>